<svg width="22" height="22" viewBox="0 0 22 22" fill="none" xmlns="http://www.w3.org/2000/svg">
<path d="M20.1739 5.81189C20.7026 5.28332 20.9997 4.56636 20.9998 3.81875C20.9999 3.07113 20.703 2.3541 20.1744 1.82539C19.6459 1.29668 18.9289 0.999606 18.1813 0.999512C17.4337 0.999418 16.7166 1.29632 16.1879 1.82489L2.84193 15.1739C2.60975 15.4054 2.43805 15.6904 2.34193 16.0039L1.02093 20.3559C0.99509 20.4424 0.993138 20.5342 1.01529 20.6217C1.03743 20.7092 1.08285 20.7891 1.14673 20.8529C1.21061 20.9167 1.29055 20.962 1.37809 20.984C1.46563 21.006 1.55749 21.0039 1.64393 20.9779L5.99693 19.6579C6.3101 19.5626 6.59511 19.392 6.82693 19.1609L20.1739 5.81189Z" stroke="#FD5F00" stroke-width="2" stroke-linecap="round" stroke-linejoin="round"/>
</svg>
